<?xml version="1.0" encoding="iso-8859-1"?>
<!-- Uploaded to: SVG Repo, www.svgrepo.com, Generator: SVG Repo Mixer Tools -->
<svg version="1.1" id="Layer_1" xmlns="http://www.w3.org/2000/svg" xmlns:xlink="http://www.w3.org/1999/xlink" 
	 viewBox="0 0 512 512" xml:space="preserve">
<rect x="310.468" y="269.617" style="fill:#D1F1FF;" width="54.468" height="32.681"/>
<path style="fill:#A65A3A;" d="M343.149,302.298l-5.447,201.532c15.044,0,27.234-12.19,27.234-27.234V302.298H343.149z"/>
<path style="fill:#D3754F;" d="M343.149,302.298v174.298c0,15.044-2.44,27.234-5.447,27.234c-15.044,0-27.234-12.19-27.234-27.234
	V302.298H343.149z"/>
<path style="fill:#74C8EE;" d="M245.106,106.213v57.191c0,21.341-13.639,39.489-32.681,46.222V106.213H245.106z"/>
<g>
	<path style="fill:#AEE6FF;" d="M212.426,209.626v277.863c0,9.02-7.321,16.34-16.34,16.34s-16.34-7.321-16.34-16.34V209.626
		c-19.042-6.732-32.681-24.881-32.681-46.222v-57.191h65.362V209.626z"/>
	<path style="fill:#AEE6FF;" d="M288.681,84.426v185.191h32.681L364.936,8.17C322.821,8.17,288.681,42.311,288.681,84.426z"/>
</g>
<path style="fill:#74C8EE;" d="M364.936,8.17v261.447h-43.574V84.426C321.362,42.311,340.872,8.17,364.936,8.17z"/>
<path d="M364.936,0c-46.552,0-84.426,37.874-84.426,84.426v185.191c0,4.512,3.658,8.17,8.17,8.17h13.617v198.809
	c0,19.521,15.883,35.404,35.404,35.404s35.404-15.883,35.404-35.404V8.17C373.106,3.658,369.448,0,364.936,0z M356.766,294.128
	h-38.128v-16.34h38.128V294.128z M296.851,261.447V84.426c0-34.779,26.209-63.55,59.915-67.598v244.619H296.851z M337.702,495.66
	c-10.511,0-19.064-8.553-19.064-19.064V310.468h38.128v166.128C356.766,487.107,348.213,495.66,337.702,495.66z"/>
<path d="M245.106,0c-4.512,0-8.17,3.658-8.17,8.17v89.872h-16.34V8.17c0-4.512-3.658-8.17-8.17-8.17s-8.17,3.658-8.17,8.17v89.872
	h-16.34V8.17c0-4.512-3.658-8.17-8.17-8.17s-8.17,3.658-8.17,8.17v89.872h-16.34V8.17c0-4.512-3.658-8.17-8.17-8.17
	s-8.17,3.658-8.17,8.17v155.234c0,22.211,12.914,42.297,32.681,51.676v272.409c0,13.516,10.995,24.511,24.511,24.511
	c13.516,0,24.511-10.995,24.511-24.511V215.08c19.766-9.379,32.681-29.464,32.681-51.676V8.17C253.277,3.658,249.619,0,245.106,0z
	 M209.702,201.922c-3.265,1.155-5.447,4.241-5.447,7.703v277.865c0,4.506-3.665,8.17-8.17,8.17s-8.17-3.665-8.17-8.17V209.625
	c0-3.462-2.182-6.549-5.447-7.703c-16.289-5.758-27.234-21.238-27.234-38.518v-49.021h16.34v2.723c0,4.512,3.658,8.17,8.17,8.17
	s8.17-3.658,8.17-8.17v-2.723h16.34v2.723c0,4.512,3.658,8.17,8.17,8.17s8.17-3.658,8.17-8.17v-2.723h16.34v49.021
	C236.936,180.684,225.991,196.164,209.702,201.922z"/>
</svg>